# xmcd
#
# Track frame offsets: 
#        150
#        12631
#        28837
#        39677
#        50619
#        65607
#        81661
#        99140
#        114187
#        126587
#        136721
#        153224
#        166267
#
# Disc length: 2423 seconds
#
# Revision: 0
# Processed by: cddbd v1.5.2PL0 Copyright (c) Steve Scherf et al.
# Submitted via: ExactAudioCopy v0.99pb4
#
DISCID=ac09750d
DTITLE=UpHill Climb - Never Ending Battle
DYEAR=2010
DGENRE=Bluegrass
TTITLE0=Streets of Gold
TTITLE1=Never Ending Battle
TTITLE2=Lost In Sin
TTITLE3=My Lord Keeps a Record
TTITLE4=Moses Did What God Commanded
TTITLE5=The Carpenter
TTITLE6=Reach Out and Touch the Lord
TTITLE7=Cry From the Cross
TTITLE8=Brush Arbors
TTITLE9=Matthew 24
TTITLE10=Land of Living
TTITLE11=I'm Going Up
TTITLE12=Cradle to Cross to Crown
EXTD=
EXTT0=
EXTT1=
EXTT2=
EXTT3=
EXTT4=
EXTT5=
EXTT6=
EXTT7=
EXTT8=
EXTT9=
EXTT10=
EXTT11=
EXTT12=
PLAYORDER=
